Coordinates
version=1
nRows=12
nColumns=34
inDegrees=yes

Units are S.I. units (second, meters, Newtons, ...)
If the header above contains a line with 'inDegrees', this indicates whether rotational values are in degrees (yes) or radians (no).

endheader
time	pelvis_tilt	pelvis_list	pelvis_rotation	pelvis_tx	pelvis_ty	pelvis_tz	hip_flexion_r	hip_adduction_r	hip_rotation_r	knee_angle_r	ankle_angle_r	subtalar_angle_r	mtp_angle_r	hip_flexion_l	hip_adduction_l	hip_rotation_l	knee_angle_l	ankle_angle_l	subtalar_angle_l	mtp_angle_l	lumbar_extension	lumbar_bending	lumbar_rotation	arm_flex_r	arm_add_r	arm_rot_r	elbow_flex_r	pro_sup_r	arm_flex_l	arm_add_l	arm_rot_l	elbow_flex_l	pro_sup_l
      0.00000000	     24.37147492	    -14.19095800	    -30.96225745	      0.43828254	      1.08752882	     -0.78872321	    -30.00000025	      4.11336958	      8.83990008	      3.24439540	    -10.82789134	    -35.00000000	      0.00000000	    -30.00000025	      2.43772026	     17.05000785	      5.34187182	     -5.13600015	    -35.00000000	      0.00000000	    -54.11435373	      1.31589168	     -5.40146883	     13.53919802	     -2.29178116	     -3.17410598	     75.30140842	    101.51335813	     14.01056809	     -1.18569482	      9.55070417	     26.12396570	     69.83394243
      0.01666670	     25.33514396	    -13.45511581	    -31.58390215	      0.43339114	      1.09020157	     -0.78964696	    -30.00000025	      2.58670878	     10.02340931	      2.76794309	     -8.51292176	    -35.00000000	      0.00000000	    -30.00000025	      4.01317915	     16.15726458	      6.97046334	     -4.56640146	    -35.00000000	      0.00000000	    -57.87411141	      1.66229046	     -6.05734835	     14.70603703	     -2.17291905	     -3.82862964	     81.41742285	    100.06637144	     15.64387923	     -0.63187763	      6.92291721	     26.52777680	     71.42129452
      0.03333330	     25.83804901	    -13.04494614	    -31.63441745	      0.43167806	      1.08994467	     -0.78946002	    -30.00000025	      2.20107462	      8.42797189	      2.89916626	     -8.23884918	    -35.00000000	      0.00000000	    -30.00000025	      4.67675788	     15.93388065	      7.62445161	     -3.73729134	    -35.00000000	      0.00000000	    -58.86453502	      1.27641324	     -6.50049133	     15.29513086	     -1.57851061	     -3.99291892	     82.38365598	     99.74287435	     16.16059647	     -0.56750900	      6.02144840	     25.99343637	     71.96824859
      0.05000000	     25.88686413	    -13.23055532	    -31.21088293	      0.43121505	      1.08952075	     -0.79049733	    -30.00000025	      2.52216715	      8.09989624	      2.93638908	     -8.71691855	    -35.00000000	      0.00000000	    -30.00000025	      4.35183721	     16.21098196	      7.81735329	     -3.53519880	    -35.00000000	      0.00000000	    -59.52395660	      1.78907957	     -6.33794056	     15.47201795	     -1.41643443	     -4.00495536	     82.43245247	     99.68880349	     16.48661053	     -0.28466874	      5.80497613	     26.15873974	     72.13001785
      0.06666670	     25.82077564	    -13.41586952	    -30.96011360	      0.43184217	      1.08795917	     -0.79149256	    -30.00000025	      2.79069520	      7.91274677	      3.04768288	     -8.85528361	    -35.00000000	      0.00000000	    -30.00000025	      4.05034517	     16.47608153	      7.96296284	     -3.17830891	    -35.00000000	      0.00000000	    -60.39350508	      2.40179882	     -6.16981243	     15.19081758	     -1.34783815	     -4.62718753	     83.91509982	     99.24453157	     16.28216668	      0.37939435	      2.99279908	     28.01112628	     74.61796586
      0.08333330	     25.73838516	    -13.55144475	    -30.91853509	      0.43274699	      1.08652159	     -0.79182644	    -30.00000025	      2.90623646	      7.93749579	      3.14256371	     -9.15422540	    -35.00000000	      0.00000000	    -30.00000025	      3.86141642	     16.54429430	      7.95904786	     -2.76436716	    -35.00000000	      0.00000000	    -60.47089472	      2.61980875	     -6.15702433	     15.18132039	     -1.44754212	     -4.76839612	     83.44793908	     99.21778934	     16.36713207	      0.36482748	      2.89111602	     28.09682169	     74.87204685
      0.10000000	     25.67852134	    -13.52826373	    -30.98766242	      0.43334606	      1.08616004	     -0.79201841	    -30.00000025	      2.80266594	      8.01142243	      3.05535144	     -9.18730899	    -35.00000000	      0.00000000	    -30.00000025	      3.86913490	     16.55041709	      7.81034233	     -2.71361320	    -35.00000000	      0.00000000	    -60.60531852	      2.75095772	     -6.20683242	     15.09478031	     -1.55769068	     -4.87844478	     83.27552321	     99.20842173	     16.38090604	      0.28645821	      2.85742282	     28.12645886	     74.92064525
      0.11666670	     25.35178385	    -13.30882580	    -31.10575555	      0.43415998	      1.08559702	     -0.79073199	    -30.00000025	      2.70614396	      8.52670784	      2.26085887	     -9.95461415	    -35.00000000	      0.00000000	    -30.00000025	      3.82659565	     16.95349085	      6.93355825	     -2.73602129	    -35.00000000	      0.00000000	    -59.91714909	      2.61045425	     -7.37703830	     15.88449697	     -0.52781066	     -5.29860317	     80.24074382	     98.73034858	     15.46386173	      0.06144359	     -0.59768307	     28.76900254	     81.82433447
      0.13333330	     25.12520329	    -13.16318995	    -31.42809796	      0.43368347	      1.08533731	     -0.78946534	    -30.00000025	      2.52184569	      9.17751994	      1.58162150	    -10.27498142	    -35.00000000	      0.00000000	    -30.00000025	      3.88907382	     16.84767287	      6.24230635	     -3.57380143	    -35.00000000	      0.00000000	    -59.95249011	      2.14539641	     -6.80547824	     15.49537143	     -1.01447297	     -5.64195183	     79.82580512	     98.69773676	     15.51300734	      0.11711179	     -0.73000081	     29.29842927	     82.27468594
      0.15000000	     24.88981771	    -12.99910707	    -31.71522153	      0.43251891	      1.08366642	     -0.78809437	    -30.00000025	      2.36369351	      9.53000102	      0.90449695	    -10.74841531	    -35.00000000	      0.00000000	    -30.00000025	      3.92577127	     16.82992137	      5.56209783	     -4.32339745	    -35.00000000	      0.00000000	    -59.87187211	      1.90120053	     -6.67789500	     15.27066236	     -0.86942827	     -6.17412114	     79.34396723	     98.65653823	     15.39250613	     -0.02150015	     -0.90261871	     29.48533766	     82.65043045
      0.16666670	     24.71196855	    -12.82024913	    -31.89418315	      0.43085786	      1.08087811	     -0.78738465	    -30.00000025	      2.20809569	      9.65692875	      0.41686615	    -10.95394527	    -35.00000000	      0.00000000	    -30.00000025	      3.98057528	     16.62702189	      5.02773967	     -4.92006701	    -35.00000000	      0.00000000	    -59.61091404	      1.71654999	     -6.76742616	     14.76523391	     -0.86589094	     -6.65189749	     78.82220658	     98.63104746	     15.21872186	     -0.08511295	     -1.05908093	     29.61786217	     82.92989399
      0.18333330	     24.66375240	    -12.80330584	    -32.04871671	      0.42878698	      1.07803539	     -0.78735724	    -30.00000025	      2.12722175	      9.67743329	      0.36113417	    -10.97620538	    -35.00000000	      0.00000000	    -30.00000025	      4.04925512	     16.67509437	      4.96146686	     -5.00797579	    -35.00000000	      0.00000000	    -59.75348980	      1.81908788	     -6.75770020	     14.52704947	     -0.87775517	     -6.72463952	     78.66605058	     98.62845122	     15.05536077	     -0.11811704	     -1.08492339	     29.58427428	     82.96563304
